<svg width="2000" height="191" viewBox="0 0 2000 191" fill="none" xmlns="http://www.w3.org/2000/svg">
<path fill-rule="evenodd" clip-rule="evenodd" d="M2000 73.7695L1917 104.507C1833 135.244 1667 196.719 1500 190.571C1333 184.424 1167 110.654 1000 67.622C833 24.5898 667 12.2949 500 36.8847C333 61.4745 167 122.949 83 153.686L0 184.424V-7.35634e-06L83 -7.35634e-06C167 -7.35634e-06 333 -7.35634e-06 500 -7.35634e-06C667 -7.35634e-06 833 -7.35634e-06 1000 -7.35634e-06C1167 -7.35634e-06 1333 -7.35634e-06 1500 -7.35634e-06C1667 -7.35634e-06 1833 -7.35634e-06 1917 -7.35634e-06L2000 -7.35634e-06V73.7695Z" fill="white"/>
</svg>
