<svg xmlns="http://www.w3.org/2000/svg" xmlns:xlink="http://www.w3.org/1999/xlink" width="1366" zoomAndPan="magnify" viewBox="0 0 1024.5 1349.999938" height="1800" preserveAspectRatio="xMidYMid meet" version="1.0"><defs><g/></defs><g fill="#ffffff" fill-opacity="1"><g transform="translate(468.390583, 983.064279)"><g><path d="M -83.4375 -2.75 L -111.5 -2.75 L -111.5 -49.71875 L 0 -49.71875 L 0 -18.453125 L -83.4375 -18.453125 Z M -83.4375 -2.75 "/></g></g></g><g fill="#ffffff" fill-opacity="1"><g transform="translate(468.390583, 924.037191)"><g><path d="M -83.59375 -38.4375 L -66.046875 -38.4375 L -66.046875 -72.75 L -43.3125 -72.75 L -43.3125 -38.4375 L -23.953125 -38.4375 L -23.953125 -77.328125 L 0 -77.328125 L 0 -8.546875 L -107.53125 -8.546875 L -107.53125 -77.328125 L -83.59375 -77.328125 Z M -83.59375 -38.4375 "/></g></g></g><g fill="#ffffff" fill-opacity="1"><g transform="translate(468.390583, 840.453598)"><g><path d="M 0 -63 L -39.65625 -41.640625 L -39.65625 -38.4375 L 0 -38.4375 L 0 -8.546875 L -107.53125 -8.546875 L -107.53125 -55.671875 C -107.53125 -64.316406 -106.03125 -71.640625 -103.03125 -77.640625 C -100.03125 -83.640625 -95.910156 -88.164062 -90.671875 -91.21875 C -85.441406 -94.269531 -79.570312 -95.796875 -73.0625 -95.796875 C -65.738281 -95.796875 -59.304688 -93.785156 -53.765625 -89.765625 C -48.222656 -85.742188 -44.285156 -79.867188 -41.953125 -72.140625 L 0 -96.40625 Z M -60.09375 -38.4375 L -60.09375 -53.234375 C -60.09375 -57.296875 -61.054688 -60.34375 -62.984375 -62.375 C -64.921875 -64.414062 -67.722656 -65.4375 -71.390625 -65.4375 C -74.847656 -65.4375 -77.566406 -64.394531 -79.546875 -62.3125 C -81.523438 -60.226562 -82.515625 -57.203125 -82.515625 -53.234375 L -82.515625 -38.4375 Z M -60.09375 -38.4375 "/></g></g></g><g fill="#ffffff" fill-opacity="1"><g transform="translate(468.390583, 739.634713)"><g/></g></g><g fill="#ffffff" fill-opacity="1"><g transform="translate(468.390583, 710.502467)"><g><path d="M -107.53125 -38.4375 L 0 -38.4375 L 0 -8.546875 L -107.53125 -8.546875 Z M -107.53125 -38.4375 "/></g></g></g><g fill="#ffffff" fill-opacity="1"><g transform="translate(468.390583, 663.524824)"><g><path d="M 0 -108.140625 L 0 -78.25 L -60.09375 -38.4375 L 0 -38.4375 L 0 -8.546875 L -107.53125 -8.546875 L -107.53125 -38.4375 L -46.671875 -78.25 L -107.53125 -78.25 L -107.53125 -108.140625 Z M 0 -108.140625 "/></g></g></g><g fill="#ffffff" fill-opacity="1"><g transform="translate(468.390583, 546.843348)"><g><path d="M -107.53125 -81.453125 L -83.734375 -81.453125 L -83.734375 -38.4375 L -64.828125 -38.4375 L -64.828125 -70.171875 L -42.09375 -70.171875 L -42.09375 -38.4375 L 0 -38.4375 L 0 -8.546875 L -107.53125 -8.546875 Z M -107.53125 -81.453125 "/></g></g></g><g fill="#ffffff" fill-opacity="1"><g transform="translate(468.390583, 461.276924)"><g><path d="M 1.0625 -60.09375 C 1.0625 -50.03125 -1.300781 -40.773438 -6.03125 -32.328125 C -10.757812 -23.890625 -17.316406 -17.203125 -25.703125 -12.265625 C -34.085938 -7.335938 -43.570312 -4.875 -54.15625 -4.875 C -64.726562 -4.875 -74.207031 -7.335938 -82.59375 -12.265625 C -90.976562 -17.203125 -97.507812 -23.890625 -102.1875 -32.328125 C -106.875 -40.773438 -109.21875 -50.03125 -109.21875 -60.09375 C -109.21875 -70.257812 -106.875 -79.535156 -102.1875 -87.921875 C -97.507812 -96.316406 -90.976562 -102.953125 -82.59375 -107.828125 C -74.207031 -112.710938 -64.726562 -115.15625 -54.15625 -115.15625 C -43.570312 -115.15625 -34.085938 -112.710938 -25.703125 -107.828125 C -17.316406 -102.953125 -10.757812 -96.296875 -6.03125 -87.859375 C -1.300781 -79.421875 1.0625 -70.164062 1.0625 -60.09375 Z M -26.6875 -60.09375 C -26.6875 -67.71875 -29.175781 -73.742188 -34.15625 -78.171875 C -39.144531 -82.597656 -45.8125 -84.8125 -54.15625 -84.8125 C -62.695312 -84.8125 -69.429688 -82.597656 -74.359375 -78.171875 C -79.285156 -73.742188 -81.75 -67.71875 -81.75 -60.09375 C -81.75 -52.363281 -79.285156 -46.3125 -74.359375 -41.9375 C -69.429688 -37.570312 -62.695312 -35.390625 -54.15625 -35.390625 C -45.707031 -35.390625 -39.015625 -37.570312 -34.078125 -41.9375 C -29.148438 -46.3125 -26.6875 -52.363281 -26.6875 -60.09375 Z M -26.6875 -60.09375 "/></g></g></g><g fill="#ffffff" fill-opacity="1"><g transform="translate(468.390583, 341.239919)"><g><path d="M 0 -63 L -39.65625 -41.640625 L -39.65625 -38.4375 L 0 -38.4375 L 0 -8.546875 L -107.53125 -8.546875 L -107.53125 -55.671875 C -107.53125 -64.316406 -106.03125 -71.640625 -103.03125 -77.640625 C -100.03125 -83.640625 -95.910156 -88.164062 -90.671875 -91.21875 C -85.441406 -94.269531 -79.570312 -95.796875 -73.0625 -95.796875 C -65.738281 -95.796875 -59.304688 -93.785156 -53.765625 -89.765625 C -48.222656 -85.742188 -44.285156 -79.867188 -41.953125 -72.140625 L 0 -96.40625 Z M -60.09375 -38.4375 L -60.09375 -53.234375 C -60.09375 -57.296875 -61.054688 -60.34375 -62.984375 -62.375 C -64.921875 -64.414062 -67.722656 -65.4375 -71.390625 -65.4375 C -74.847656 -65.4375 -77.566406 -64.394531 -79.546875 -62.3125 C -81.523438 -60.226562 -82.515625 -57.203125 -82.515625 -53.234375 L -82.515625 -38.4375 Z M -60.09375 -38.4375 "/></g></g></g><g fill="#ffffff" fill-opacity="1"><g transform="translate(468.390583, 240.421058)"><g><path d="M -107.53125 -134.078125 L 0 -134.078125 L 0 -104.171875 L -59.328125 -104.171875 L 0 -83.890625 L 0 -58.875 L -59.796875 -38.4375 L 0 -38.4375 L 0 -8.546875 L -107.53125 -8.546875 L -107.53125 -44.6875 L -37.671875 -71.6875 L -107.53125 -98.078125 Z M -107.53125 -134.078125 "/></g></g></g><g fill="#ffffff" fill-opacity="1"><g transform="translate(468.390583, 97.810352)"><g><path d="M -83.59375 -38.4375 L -66.046875 -38.4375 L -66.046875 -72.75 L -43.3125 -72.75 L -43.3125 -38.4375 L -23.953125 -38.4375 L -23.953125 -77.328125 L 0 -77.328125 L 0 -8.546875 L -107.53125 -8.546875 L -107.53125 -77.328125 L -83.59375 -77.328125 Z M -83.59375 -38.4375 "/></g></g></g><g fill="#ffffff" fill-opacity="1"><g transform="translate(468.390583, 14.235969)"><g/></g></g><g fill="#ffffff" fill-opacity="1"><g transform="translate(646.130887, 1346.927204)"><g><path d="M -24.21875 -105.703125 L -24.21875 -53.0625 L 0 -45.0625 L 0 -1.6875 L -148.453125 -55.796875 L -148.453125 -103.390625 L 0 -157.296875 L 0 -113.71875 Z M -55.796875 -95.390625 L -103.8125 -79.390625 L -55.796875 -63.59375 Z M -55.796875 -95.390625 "/></g></g></g><g fill="#ffffff" fill-opacity="1"><g transform="translate(646.130887, 1187.943092)"><g><path d="M 0 -149.296875 L 0 -108.03125 L -82.96875 -53.0625 L 0 -53.0625 L 0 -11.796875 L -148.453125 -11.796875 L -148.453125 -53.0625 L -64.4375 -108.03125 L -148.453125 -108.03125 L -148.453125 -149.296875 Z M 0 -149.296875 "/></g></g></g><g fill="#ffffff" fill-opacity="1"><g transform="translate(646.130887, 1026.853244)"><g><path d="M -24.21875 -105.703125 L -24.21875 -53.0625 L 0 -45.0625 L 0 -1.6875 L -148.453125 -55.796875 L -148.453125 -103.390625 L 0 -157.296875 L 0 -113.71875 Z M -55.796875 -95.390625 L -103.8125 -79.390625 L -55.796875 -63.59375 Z M -55.796875 -95.390625 "/></g></g></g><g fill="#ffffff" fill-opacity="1"><g transform="translate(646.130887, 867.869133)"><g/></g></g><g fill="#ffffff" fill-opacity="1"><g transform="translate(646.130887, 827.649323)"><g><path d="M -148.453125 -123.609375 L -115.609375 -123.609375 L -115.609375 -84.015625 L 0 -84.015625 L 0 -42.75 L -115.609375 -42.75 L -115.609375 -3.578125 L -148.453125 -3.578125 Z M -148.453125 -123.609375 "/></g></g></g><g fill="#ffffff" fill-opacity="1"><g transform="translate(646.130887, 700.462044)"><g><path d="M 1.46875 -82.96875 C 1.46875 -69.070312 -1.789062 -56.296875 -8.3125 -44.640625 C -14.84375 -32.992188 -23.898438 -23.765625 -35.484375 -16.953125 C -47.066406 -10.140625 -60.15625 -6.734375 -74.75 -6.734375 C -89.351562 -6.734375 -102.445312 -10.140625 -114.03125 -16.953125 C -125.613281 -23.765625 -134.632812 -32.992188 -141.09375 -44.640625 C -147.550781 -56.296875 -150.78125 -69.070312 -150.78125 -82.96875 C -150.78125 -97.007812 -147.550781 -109.816406 -141.09375 -121.390625 C -134.632812 -132.972656 -125.613281 -142.132812 -114.03125 -148.875 C -102.445312 -155.613281 -89.351562 -158.984375 -74.75 -158.984375 C -60.15625 -158.984375 -47.066406 -155.613281 -35.484375 -148.875 C -23.898438 -142.132812 -14.84375 -132.9375 -8.3125 -121.28125 C -1.789062 -109.632812 1.46875 -96.863281 1.46875 -82.96875 Z M -36.84375 -82.96875 C -36.84375 -93.5 -40.28125 -101.816406 -47.15625 -107.921875 C -54.039062 -114.023438 -63.238281 -117.078125 -74.75 -117.078125 C -86.539062 -117.078125 -95.84375 -114.023438 -102.65625 -107.921875 C -109.46875 -101.816406 -112.875 -93.5 -112.875 -82.96875 C -112.875 -72.300781 -109.46875 -63.945312 -102.65625 -57.90625 C -95.84375 -51.875 -86.539062 -48.859375 -74.75 -48.859375 C -63.101562 -48.859375 -53.875 -51.875 -47.0625 -57.90625 C -40.25 -63.945312 -36.84375 -72.300781 -36.84375 -82.96875 Z M -36.84375 -82.96875 "/></g></g></g><g fill="#ffffff" fill-opacity="1"><g transform="translate(646.130887, 534.739547)"><g><path d="M 0 -86.96875 L -54.75 -57.484375 L -54.75 -53.0625 L 0 -53.0625 L 0 -11.796875 L -148.453125 -11.796875 L -148.453125 -76.859375 C -148.453125 -88.796875 -146.378906 -98.90625 -142.234375 -107.1875 C -138.097656 -115.46875 -132.414062 -121.710938 -125.1875 -125.921875 C -117.957031 -130.140625 -109.847656 -132.25 -100.859375 -132.25 C -90.753906 -132.25 -81.875 -129.472656 -74.21875 -123.921875 C -66.570312 -118.378906 -61.132812 -110.273438 -57.90625 -99.609375 L 0 -133.078125 Z M -82.96875 -53.0625 L -82.96875 -73.484375 C -82.96875 -79.109375 -84.300781 -83.320312 -86.96875 -86.125 C -89.632812 -88.9375 -93.492188 -90.34375 -98.546875 -90.34375 C -103.316406 -90.34375 -107.070312 -88.898438 -109.8125 -86.015625 C -112.550781 -83.140625 -113.921875 -78.960938 -113.921875 -73.484375 L -113.921875 -53.0625 Z M -82.96875 -53.0625 "/></g></g></g><g fill="#ffffff" fill-opacity="1"><g transform="translate(646.130887, 395.549524)"><g><path d="M 0 -86.96875 L -54.75 -57.484375 L -54.75 -53.0625 L 0 -53.0625 L 0 -11.796875 L -148.453125 -11.796875 L -148.453125 -76.859375 C -148.453125 -88.796875 -146.378906 -98.90625 -142.234375 -107.1875 C -138.097656 -115.46875 -132.414062 -121.710938 -125.1875 -125.921875 C -117.957031 -130.140625 -109.847656 -132.25 -100.859375 -132.25 C -90.753906 -132.25 -81.875 -129.472656 -74.21875 -123.921875 C -66.570312 -118.378906 -61.132812 -110.273438 -57.90625 -99.609375 L 0 -133.078125 Z M -82.96875 -53.0625 L -82.96875 -73.484375 C -82.96875 -79.109375 -84.300781 -83.320312 -86.96875 -86.125 C -89.632812 -88.9375 -93.492188 -90.34375 -98.546875 -90.34375 C -103.316406 -90.34375 -107.070312 -88.898438 -109.8125 -86.015625 C -112.550781 -83.140625 -113.921875 -78.960938 -113.921875 -73.484375 L -113.921875 -53.0625 Z M -82.96875 -53.0625 "/></g></g></g><g fill="#ffffff" fill-opacity="1"><g transform="translate(646.130887, 256.3595)"><g><path d="M -115.390625 -53.0625 L -91.1875 -53.0625 L -91.1875 -100.453125 L -59.796875 -100.453125 L -59.796875 -53.0625 L -33.0625 -53.0625 L -33.0625 -106.765625 L 0 -106.765625 L 0 -11.796875 L -148.453125 -11.796875 L -148.453125 -106.765625 L -115.390625 -106.765625 Z M -115.390625 -53.0625 "/></g></g></g><g fill="#ffffff" fill-opacity="1"><g transform="translate(646.130887, 140.964406)"><g><path d="M -33.484375 -56.859375 L -33.484375 -118.5625 L 0 -118.5625 L 0 -10.53125 L -31.375 -10.53125 L -115.1875 -71.59375 L -115.1875 -10.53125 L -148.453125 -10.53125 L -148.453125 -118.5625 L -117.078125 -118.5625 Z M -33.484375 -56.859375 "/></g></g></g><g fill="#ffffff" fill-opacity="1"><g transform="translate(646.130887, 11.895688)"><g/></g></g></svg>