<svg xmlns="http://www.w3.org/2000/svg" xmlns:xlink="http://www.w3.org/1999/xlink" width="1366" zoomAndPan="magnify" viewBox="0 0 1024.5 576" height="768" preserveAspectRatio="xMidYMid meet" version="1.0"><path fill="#ffffff" d="M 999.296875 151.378906 L 536.09375 425.652344 C 521.664062 434.191406 502.835938 434.191406 488.402344 425.652344 L 25.203125 151.378906 C 14.445312 145.007812 6.8125 134.828125 3.707031 122.714844 C 0.609375 110.601562 2.40625 98.003906 8.777344 87.25 C 21.917969 65.066406 50.679688 57.695312 72.894531 70.824219 L 512.25 330.984375 L 951.617188 70.820312 C 959.078125 66.40625 967.269531 64.308594 975.367188 64.308594 C 991.378906 64.308594 1006.996094 72.511719 1015.722656 87.25 C 1022.09375 98.003906 1023.894531 110.601562 1020.792969 122.714844 C 1017.6875 134.828125 1010.054688 145.007812 999.296875 151.378906 " fill-opacity="1" fill-rule="nonzero"/></svg>